<svg width="89" height="124" viewBox="0 0 89 124" fill="none" xmlns="http://www.w3.org/2000/svg">
<g filter="url(#filter0_d_46_253)">
<path d="M49 34C49 31.7909 47.2091 30 45 30C42.7909 30 41 31.7909 41 34L49 34ZM42.1716 108.828C43.7337 110.391 46.2663 110.391 47.8284 108.828L73.2843 83.3726C74.8464 81.8105 74.8464 79.2778 73.2843 77.7157C71.7222 76.1536 69.1895 76.1536 67.6274 77.7157L45 100.343L22.3726 77.7157C20.8105 76.1536 18.2778 76.1536 16.7157 77.7157C15.1536 79.2778 15.1536 81.8105 16.7157 83.3726L42.1716 108.828ZM41 34L41 106L49 106L49 34L41 34Z" fill="white"/>
</g>
<defs>
<filter id="filter0_d_46_253" x="-14.4559" y="0" width="118.912" height="140" filterUnits="userSpaceOnUse" color-interpolation-filters="sRGB">
<feFlood flood-opacity="0" result="BackgroundImageFix"/>
<feColorMatrix in="SourceAlpha" type="matrix" values="0 0 0 0 0 0 0 0 0 0 0 0 0 0 0 0 0 0 127 0" result="hardAlpha"/>
<feOffset/>
<feGaussianBlur stdDeviation="15"/>
<feComposite in2="hardAlpha" operator="out"/>
<feColorMatrix type="matrix" values="0 0 0 0 1 0 0 0 0 1 0 0 0 0 1 0 0 0 0.7 0"/>
<feBlend mode="normal" in2="BackgroundImageFix" result="effect1_dropShadow_46_253"/>
<feBlend mode="normal" in="SourceGraphic" in2="effect1_dropShadow_46_253" result="shape"/>
</filter>
</defs>
</svg>
